<svg xmlns="http://www.w3.org/2000/svg" version="1.1" xmlns:xlink="http://www.w3.org/1999/xlink" xmlns:svgjs="http://svgjs.dev/svgjs" width="2000" height="1500" viewBox="0 0 2000 1500"><rect width="2000" height="1500" fill="#000000"></rect><g transform="matrix(0.75,0,0,0.75,249.090909090909,278.98548387096776)"><svg viewBox="0 0 396 248" data-background-color="#040407" preserveAspectRatio="xMidYMid meet" height="1252" width="2000" xmlns="http://www.w3.org/2000/svg" xmlns:xlink="http://www.w3.org/1999/xlink"><g id="tight-bounds" transform="matrix(1,0,0,1,0.2400000000000091,0.4000000000000057)"><svg viewBox="0 0 395.52 247.2" height="247.2" width="395.52"><g><svg></svg></g><g><svg viewBox="0 0 395.52 247.2" height="247.2" width="395.52"><mask id="aba7dc29-69b1-42a2-be09-220f79b2d57e"><rect width="640" height="400" fill="white"></rect><g transform="matrix(1,0,0,1,39.55199999999999,100.2133612593689)"><svg viewBox="0 0 316.416 46.7732774812622" height="46.7732774812622" width="316.416"><g><svg viewBox="0 0 316.416 46.7732774812622" height="46.7732774812622" width="316.416"><g><svg viewBox="0 0 316.416 46.7732774812622" height="46.7732774812622" width="316.416"><g><svg viewBox="0 0 316.416 46.7732774812622" height="46.7732774812622" width="316.416"><g id="SvgjsG8087"><svg viewBox="0 0 316.416 46.7732774812622" height="46.7732774812622" width="316.416" id="SvgjsSvg8086"><g><svg viewBox="0 0 316.416 46.7732774812622" height="46.7732774812622" width="316.416"><g transform="matrix(1,0,0,1,0,0)"><svg width="316.416" viewBox="-2.41 -39.23 290.61 43.82" height="46.7732774812622" data-palette-color="#ffffff"><path d="M27.15 0L27.15 0 21.56 0 18.51-11.79 13.6 0 8.08 0 1.59-25.42 5.79-25.42 11.13-3.05 17.04-17.7 15.06-25.42 19.26-25.42 24.76-3.05Q27.39-9.16 28.44-12.23L28.44-12.23Q29.71-15.97 29.71-18.65L29.71-18.65Q29.71-21 28.56-24.98L28.56-24.98Q30.79-25.54 32.59-25.88L32.59-25.88Q33.62-23.36 33.89-20.46L33.89-20.46Q33.96-19.73 33.96-18.97L33.96-18.97Q33.96-14.97 31.71-9.64L31.71-9.64Q31.1-8.23 30.33-6.6 29.57-4.98 28.53-2.84 27.49-0.71 27.15 0ZM42.97-35.23L42.97-35.23Q44.09-35.23 44.92-34.45L44.92-34.45Q45.73-33.59 45.73-32.45L45.73-32.45Q45.73-31.27 44.92-30.47L44.92-30.47Q44.09-29.64 42.97-29.64L42.97-29.64Q41.79-29.64 40.96-30.47L40.96-30.47Q40.13-31.25 40.13-32.45L40.13-32.45Q40.13-33.62 40.96-34.45L40.96-34.45Q41.79-35.23 42.97-35.23ZM40.82 0L40.82-25.39 45.02-25.39 45.02 0 40.82 0ZM65.52-21.85L59.42-21.85Q58.42-21.85 57.59-21.88 56.76-21.9 55.99-21.98 55.22-22.07 54.43-22.27 53.63-22.46 52.7-22.8L52.7-22.8Q53.02-23.68 53.33-24.51 53.63-25.34 53.95-26.27L53.95-26.27Q54.93-25.95 55.68-25.78 56.44-25.61 57.17-25.52 57.91-25.44 58.69-25.42 59.47-25.39 60.54-25.39L60.54-25.39 70.8-25.39 70.8-22.46 58.05-3.54 71.02-3.54 71.02 0 52.8 0 52.8-2.95 65.52-21.85ZM79.44-20.9L79.44-20.9 78.36-24.32Q82.46-25.95 86.96-25.95L86.96-25.95Q90.89-25.95 92.96-24.63L92.96-24.63Q95.33-23.12 95.33-19.48L95.33-19.48 95.33-9.5Q95.33-7.5 95.38-5.4L95.38-5.4Q95.4-4.15 95.62-2.81L95.62-2.81Q95.82-1.54 96.14-0.39L96.14-0.39 92.13 0.49Q91.57-1.15 91.42-3.17L91.42-3.17 90.93-3.22Q87.91 0.59 83.22 0.59L83.22 0.59Q79.8 0.59 77.73-1.31 75.65-3.2 75.65-6.64L75.65-6.64Q75.65-9.2 76.79-10.84 77.92-12.48 80-13.6L80-13.6Q83.27-15.38 89.15-15.38L89.15-15.38Q89.93-15.38 91.25-15.33L91.25-15.33 91.25-19.04Q91.25-20.8 90.18-21.58 89.1-22.36 86.81-22.36L86.81-22.36Q83.46-22.36 79.44-20.9ZM91.25-7.13L91.25-7.13 91.25-12.26Q90.59-12.3 89.32-12.3L89.32-12.3Q87.18-12.3 85.37-11.94L85.37-11.94Q82.68-11.4 81.21-10.24 79.73-9.08 79.73-6.91L79.73-6.91Q79.73-3 83.98-3L83.98-3Q86.17-3 88.08-4.17L88.08-4.17Q89.64-5.15 91.25-7.13ZM107.7-19.51L107.92-19.51Q108.68-21.02 109.55-22.24 110.41-23.46 111.46-24.32L111.46-24.32Q112.42-25.15 113.56-25.55 114.71-25.95 116.18-25.95L116.18-25.95Q116.66-25.95 117.31-25.9 117.96-25.85 118.54-25.73L118.54-25.73Q118.45-24.51 118.31-23.44 118.18-22.36 117.96-21.26L117.96-21.26Q116.74-21.48 115.72-21.58 114.71-21.68 113.81-21.53L113.81-21.53Q112.73-21.34 111.94-20.81 111.15-20.29 110.48-19.42 109.8-18.55 109.17-17.35 108.53-16.14 107.78-14.58L107.78-14.58 107.78 0 103.58 0 103.58-15.65Q103.58-17.19 103.54-18.36 103.51-19.53 103.4-20.59 103.29-21.66 103.07-22.69 102.85-23.73 102.48-25L102.48-25Q103.51-25.27 104.49-25.49 105.48-25.71 106.51-25.9L106.51-25.9Q106.85-24.93 107.06-24.17 107.27-23.41 107.39-22.69 107.51-21.97 107.57-21.23 107.63-20.48 107.7-19.51L107.7-19.51ZM138.54-25.34L138.54-35.16 142.74-35.16 142.74-9.59Q142.74-5.3 142.86-3.96L142.86-3.96Q142.98-2.29 143.42-0.39L143.42-0.39 139.37 0.51Q138.95-0.85 138.76-2.25L138.76-2.25Q138.51-3.96 138.49-4.88L138.49-4.88 138.12-4.88Q136.85-2.25 135.31-1L135.31-1Q133.46 0.59 130.72 0.59L130.72 0.59Q128.33 0.59 126.6-0.45 124.87-1.49 123.9-3.34 122.94-5.2 122.49-7.42 122.03-9.64 122.03-12.33L122.03-12.33Q122.03-15.36 122.66-17.77 123.28-20.19 124.57-22.06 125.87-23.93 128.04-24.94 130.21-25.95 133.14-25.95L133.14-25.95Q135.44-25.95 138.54-25.34L138.54-25.34ZM138.54-10.28L138.54-10.28 138.54-21.63Q135.78-22.36 133.46-22.36L133.46-22.36Q131.48-22.36 130.05-21.64 128.63-20.92 127.82-19.62 127.01-18.31 126.65-16.7 126.28-15.09 126.28-13.09L126.28-13.09Q126.28-11.72 126.34-10.68 126.4-9.64 126.56-8.44 126.72-7.23 127.06-6.37 127.4-5.52 127.92-4.79 128.43-4.05 129.25-3.67 130.07-3.3 131.14-3.3L131.14-3.3Q133.73-3.3 135.63-5.37L135.63-5.37Q137-6.88 138.54-10.28ZM174.15 0L174.15 0 168.56 0 165.51-11.79 160.61 0 155.09 0 148.59-25.42 152.79-25.42 158.14-3.05 164.05-17.7 162.07-25.42 166.27-25.42 171.76-3.05Q174.4-9.16 175.45-12.23L175.45-12.23Q176.72-15.97 176.72-18.65L176.72-18.65Q176.72-21 175.57-24.98L175.57-24.98Q177.79-25.54 179.6-25.88L179.6-25.88Q180.62-23.36 180.89-20.46L180.89-20.46Q180.97-19.73 180.97-18.97L180.97-18.97Q180.97-14.97 178.72-9.64L178.72-9.64Q178.11-8.23 177.34-6.6 176.57-4.98 175.53-2.84 174.5-0.71 174.15 0ZM191.85-19.51L192.07-19.51Q192.83-21.02 193.7-22.24 194.56-23.46 195.61-24.32L195.61-24.32Q196.56-25.15 197.71-25.55 198.86-25.95 200.32-25.95L200.32-25.95Q200.81-25.95 201.46-25.9 202.11-25.85 202.69-25.73L202.69-25.73Q202.59-24.51 202.46-23.44 202.33-22.36 202.11-21.26L202.11-21.26Q200.89-21.48 199.87-21.58 198.86-21.68 197.96-21.53L197.96-21.53Q196.88-21.34 196.09-20.81 195.3-20.29 194.62-19.42 193.95-18.55 193.32-17.35 192.68-16.14 191.93-14.58L191.93-14.58 191.93 0 187.73 0 187.73-15.65Q187.73-17.19 187.69-18.36 187.65-19.53 187.54-20.59 187.43-21.66 187.21-22.69 186.99-23.73 186.63-25L186.63-25Q187.65-25.27 188.64-25.49 189.63-25.71 190.66-25.9L190.66-25.9Q191-24.93 191.21-24.17 191.41-23.41 191.54-22.69 191.66-21.97 191.72-21.23 191.78-20.48 191.85-19.51L191.85-19.51ZM210.31-35.23L210.31-35.23Q211.43-35.23 212.26-34.45L212.26-34.45Q213.07-33.59 213.07-32.45L213.07-32.45Q213.07-31.27 212.26-30.47L212.26-30.47Q211.43-29.64 210.31-29.64L210.31-29.64Q209.14-29.64 208.31-30.47L208.31-30.47Q207.48-31.25 207.48-32.45L207.48-32.45Q207.48-33.62 208.31-34.45L208.31-34.45Q209.14-35.23 210.31-35.23ZM208.16 0L208.16-25.39 212.36-25.39 212.36 0 208.16 0ZM223.34-25.39L223.34-31.2 227.54-31.2 227.54-25.39 236.09-25.39 236.09-21.85 227.54-21.85 227.54-7.28Q227.54-5.81 227.63-5.04 227.71-4.27 228.05-3.83L228.05-3.83Q228.69-2.95 230.62-2.95L230.62-2.95Q231.69-2.95 232.69-3.17L232.69-3.17Q233.72-3.39 234.57-3.66L234.57-3.66Q235.26-2.17 235.82-0.39L235.82-0.39Q232.94 0.59 230.01 0.59L230.01 0.59Q227.88 0.59 226.6 0.11 225.32-0.37 224.59-1.44L224.59-1.44Q223.83-2.56 223.59-4.13 223.34-5.69 223.34-8.45L223.34-8.45 223.34-21.85 219.68-21.85 219.68-25.39 223.34-25.39ZM259.89-4.71L261.11-1.42Q258.4-0.34 256.02 0.12 253.64 0.59 251.76 0.59L251.76 0.59Q248.88 0.59 246.73-0.33 244.58-1.25 243.15-2.91 241.72-4.57 241-6.87 240.28-9.18 240.28-11.96L240.28-11.96Q240.28-13.67 240.53-15.38 240.77-17.09 241.31-18.64 241.85-20.19 242.71-21.53 243.58-22.88 244.82-23.85 246.07-24.83 247.73-25.39 249.39-25.95 251.51-25.95L251.51-25.95Q256.96-25.95 259.72-22.55 262.48-19.14 262.48-12.79L262.48-12.79 262.48-11.45 244.6-11.45Q244.6-9.4 245.04-7.82 245.48-6.25 246.4-5.16 247.31-4.08 248.72-3.52 250.12-2.95 252.05-2.95L252.05-2.95Q253.12-2.95 254.19-3.11 255.25-3.27 256.25-3.53 257.25-3.78 258.17-4.1 259.08-4.42 259.89-4.71L259.89-4.71ZM244.73-14.82L258.25-14.82Q258.06-18.77 256.36-20.59 254.66-22.41 251.51-22.41L251.51-22.41Q248.36-22.41 246.72-20.59 245.07-18.77 244.73-14.82L244.73-14.82ZM273.36-19.51L273.58-19.51Q274.34-21.02 275.2-22.24 276.07-23.46 277.12-24.32L277.12-24.32Q278.07-25.15 279.22-25.55 280.37-25.95 281.83-25.95L281.83-25.95Q282.32-25.95 282.97-25.9 283.62-25.85 284.2-25.73L284.2-25.73Q284.1-24.51 283.97-23.44 283.83-22.36 283.62-21.26L283.62-21.26Q282.39-21.48 281.38-21.58 280.37-21.68 279.46-21.53L279.46-21.53Q278.39-21.34 277.6-20.81 276.8-20.29 276.13-19.42 275.46-18.55 274.83-17.35 274.19-16.14 273.43-14.58L273.43-14.58 273.43 0 269.24 0 269.24-15.65Q269.24-17.19 269.2-18.36 269.16-19.53 269.05-20.59 268.94-21.66 268.72-22.69 268.5-23.73 268.14-25L268.14-25Q269.16-25.27 270.15-25.49 271.14-25.71 272.16-25.9L272.16-25.9Q272.51-24.93 272.71-24.17 272.92-23.41 273.04-22.69 273.17-21.97 273.23-21.23 273.29-20.48 273.36-19.51L273.36-19.51Z" opacity="1" transform="matrix(1,0,0,1,0,0)" fill="black" class="wordmark-text-0" id="SvgjsPath8085" stroke-width="7" stroke="black" stroke-linejoin="round"></path></svg></g></svg></g></svg></g></svg></g></svg></g></svg></g></svg></g></mask><g transform="matrix(1,0,0,1,39.55199999999999,100.2133612593689)"><svg viewBox="0 0 316.416 46.7732774812622" height="46.7732774812622" width="316.416"><g><svg viewBox="0 0 316.416 46.7732774812622" height="46.7732774812622" width="316.416"><g><svg viewBox="0 0 316.416 46.7732774812622" height="46.7732774812622" width="316.416"><g><svg viewBox="0 0 316.416 46.7732774812622" height="46.7732774812622" width="316.416"><g id="textblocktransform"><svg viewBox="0 0 316.416 46.7732774812622" height="46.7732774812622" width="316.416" id="textblock"><g><svg viewBox="0 0 316.416 46.7732774812622" height="46.7732774812622" width="316.416"><g transform="matrix(1,0,0,1,0,0)"><svg width="316.416" viewBox="-2.41 -39.23 290.61 43.82" height="46.7732774812622" data-palette-color="#ffffff"><path d="M27.15 0L27.15 0 21.56 0 18.51-11.79 13.6 0 8.08 0 1.59-25.42 5.79-25.42 11.13-3.05 17.04-17.7 15.06-25.42 19.26-25.42 24.76-3.05Q27.39-9.16 28.44-12.23L28.44-12.23Q29.71-15.97 29.71-18.65L29.71-18.65Q29.71-21 28.56-24.98L28.56-24.98Q30.79-25.54 32.59-25.88L32.59-25.88Q33.62-23.36 33.89-20.46L33.89-20.46Q33.96-19.73 33.96-18.97L33.96-18.97Q33.96-14.97 31.71-9.64L31.71-9.64Q31.1-8.23 30.33-6.6 29.57-4.98 28.53-2.84 27.49-0.71 27.15 0ZM42.97-35.23L42.97-35.23Q44.09-35.23 44.92-34.45L44.92-34.45Q45.73-33.59 45.73-32.45L45.73-32.45Q45.73-31.27 44.92-30.47L44.92-30.47Q44.09-29.64 42.97-29.64L42.97-29.64Q41.79-29.64 40.96-30.47L40.96-30.47Q40.13-31.25 40.13-32.45L40.13-32.45Q40.13-33.62 40.96-34.45L40.96-34.45Q41.79-35.23 42.97-35.23ZM40.82 0L40.82-25.39 45.02-25.39 45.02 0 40.82 0ZM65.52-21.85L59.42-21.85Q58.42-21.85 57.59-21.88 56.76-21.9 55.99-21.98 55.22-22.07 54.43-22.27 53.63-22.46 52.7-22.8L52.7-22.8Q53.02-23.68 53.33-24.51 53.63-25.34 53.95-26.27L53.95-26.27Q54.93-25.95 55.68-25.78 56.44-25.61 57.17-25.52 57.91-25.44 58.69-25.42 59.47-25.39 60.54-25.39L60.54-25.39 70.8-25.39 70.8-22.46 58.05-3.54 71.02-3.54 71.02 0 52.8 0 52.8-2.95 65.52-21.85ZM79.44-20.9L79.44-20.9 78.36-24.32Q82.46-25.95 86.96-25.95L86.96-25.95Q90.89-25.95 92.96-24.63L92.96-24.63Q95.33-23.12 95.33-19.48L95.33-19.48 95.33-9.5Q95.33-7.5 95.38-5.4L95.38-5.4Q95.4-4.15 95.62-2.81L95.62-2.81Q95.82-1.54 96.14-0.39L96.14-0.39 92.13 0.49Q91.57-1.15 91.42-3.17L91.42-3.17 90.93-3.22Q87.91 0.59 83.22 0.59L83.22 0.59Q79.8 0.59 77.73-1.31 75.65-3.2 75.65-6.64L75.65-6.64Q75.65-9.2 76.79-10.84 77.92-12.48 80-13.6L80-13.6Q83.27-15.38 89.15-15.38L89.15-15.38Q89.93-15.38 91.25-15.33L91.25-15.33 91.25-19.04Q91.25-20.8 90.18-21.58 89.1-22.36 86.81-22.36L86.81-22.36Q83.46-22.36 79.44-20.9ZM91.25-7.13L91.25-7.13 91.25-12.26Q90.59-12.3 89.32-12.3L89.32-12.3Q87.18-12.3 85.37-11.94L85.37-11.94Q82.68-11.4 81.21-10.24 79.73-9.08 79.73-6.91L79.73-6.91Q79.73-3 83.98-3L83.98-3Q86.17-3 88.08-4.17L88.08-4.17Q89.64-5.15 91.25-7.13ZM107.7-19.51L107.92-19.51Q108.68-21.02 109.55-22.24 110.41-23.46 111.46-24.32L111.46-24.32Q112.42-25.15 113.56-25.55 114.71-25.95 116.18-25.95L116.18-25.95Q116.66-25.95 117.31-25.9 117.96-25.85 118.54-25.73L118.54-25.73Q118.45-24.51 118.31-23.44 118.18-22.36 117.96-21.26L117.96-21.26Q116.74-21.48 115.72-21.58 114.71-21.68 113.81-21.53L113.81-21.53Q112.73-21.34 111.94-20.81 111.15-20.29 110.48-19.42 109.8-18.55 109.17-17.35 108.53-16.14 107.78-14.58L107.78-14.58 107.78 0 103.58 0 103.58-15.65Q103.58-17.19 103.54-18.36 103.51-19.53 103.4-20.59 103.29-21.66 103.07-22.69 102.85-23.73 102.48-25L102.48-25Q103.51-25.27 104.49-25.49 105.48-25.71 106.51-25.9L106.51-25.9Q106.85-24.93 107.06-24.17 107.27-23.41 107.39-22.69 107.51-21.97 107.57-21.23 107.63-20.48 107.7-19.51L107.7-19.51ZM138.54-25.34L138.54-35.16 142.74-35.16 142.74-9.59Q142.74-5.3 142.86-3.96L142.86-3.96Q142.98-2.29 143.42-0.39L143.42-0.39 139.37 0.51Q138.95-0.85 138.76-2.25L138.76-2.25Q138.51-3.96 138.49-4.88L138.49-4.88 138.12-4.88Q136.85-2.25 135.31-1L135.31-1Q133.46 0.59 130.72 0.59L130.72 0.59Q128.33 0.59 126.6-0.45 124.87-1.49 123.9-3.34 122.94-5.2 122.49-7.42 122.03-9.64 122.03-12.33L122.03-12.33Q122.03-15.36 122.66-17.77 123.28-20.19 124.57-22.06 125.87-23.93 128.04-24.94 130.21-25.95 133.14-25.95L133.14-25.95Q135.44-25.95 138.54-25.34L138.54-25.34ZM138.54-10.28L138.54-10.28 138.54-21.63Q135.78-22.36 133.46-22.36L133.46-22.36Q131.48-22.36 130.05-21.64 128.63-20.92 127.82-19.62 127.01-18.31 126.65-16.7 126.28-15.09 126.28-13.09L126.28-13.09Q126.28-11.72 126.34-10.68 126.4-9.64 126.56-8.44 126.72-7.23 127.06-6.37 127.4-5.52 127.92-4.79 128.43-4.05 129.25-3.67 130.07-3.3 131.14-3.3L131.14-3.3Q133.73-3.3 135.63-5.37L135.63-5.37Q137-6.88 138.54-10.28ZM174.15 0L174.15 0 168.56 0 165.51-11.79 160.61 0 155.09 0 148.59-25.42 152.79-25.42 158.14-3.05 164.05-17.7 162.07-25.42 166.27-25.42 171.76-3.05Q174.4-9.16 175.45-12.23L175.45-12.23Q176.72-15.97 176.72-18.65L176.72-18.65Q176.72-21 175.57-24.98L175.57-24.98Q177.79-25.54 179.6-25.88L179.6-25.88Q180.62-23.36 180.89-20.46L180.89-20.46Q180.97-19.73 180.97-18.97L180.97-18.97Q180.97-14.97 178.72-9.64L178.72-9.64Q178.11-8.23 177.34-6.6 176.57-4.98 175.53-2.84 174.5-0.71 174.15 0ZM191.85-19.51L192.07-19.51Q192.83-21.02 193.7-22.24 194.56-23.46 195.61-24.32L195.61-24.32Q196.56-25.15 197.71-25.55 198.86-25.95 200.32-25.95L200.32-25.95Q200.81-25.95 201.46-25.9 202.11-25.85 202.69-25.73L202.69-25.73Q202.59-24.51 202.46-23.44 202.33-22.36 202.11-21.26L202.11-21.26Q200.89-21.48 199.87-21.58 198.86-21.68 197.96-21.53L197.96-21.53Q196.88-21.34 196.09-20.81 195.3-20.29 194.62-19.42 193.95-18.55 193.32-17.35 192.68-16.14 191.93-14.58L191.93-14.58 191.93 0 187.73 0 187.73-15.65Q187.73-17.19 187.69-18.36 187.65-19.53 187.54-20.59 187.43-21.66 187.21-22.69 186.99-23.73 186.63-25L186.63-25Q187.65-25.27 188.64-25.49 189.63-25.71 190.66-25.9L190.66-25.9Q191-24.93 191.21-24.17 191.41-23.41 191.54-22.69 191.66-21.97 191.72-21.23 191.78-20.48 191.85-19.51L191.85-19.51ZM210.31-35.23L210.31-35.23Q211.43-35.23 212.26-34.45L212.26-34.45Q213.07-33.59 213.07-32.45L213.07-32.45Q213.07-31.27 212.26-30.47L212.26-30.47Q211.43-29.64 210.31-29.64L210.31-29.64Q209.14-29.64 208.31-30.47L208.31-30.47Q207.48-31.25 207.48-32.45L207.48-32.45Q207.48-33.62 208.31-34.45L208.31-34.45Q209.14-35.23 210.31-35.23ZM208.16 0L208.16-25.39 212.36-25.39 212.36 0 208.16 0ZM223.34-25.39L223.34-31.2 227.54-31.2 227.54-25.39 236.09-25.39 236.09-21.85 227.54-21.85 227.54-7.28Q227.54-5.81 227.63-5.04 227.71-4.27 228.05-3.83L228.05-3.83Q228.69-2.95 230.62-2.95L230.62-2.95Q231.69-2.95 232.69-3.17L232.69-3.17Q233.72-3.39 234.57-3.66L234.57-3.66Q235.26-2.17 235.82-0.39L235.82-0.39Q232.94 0.59 230.01 0.59L230.01 0.59Q227.88 0.59 226.6 0.11 225.32-0.37 224.59-1.44L224.59-1.44Q223.83-2.56 223.59-4.13 223.34-5.69 223.34-8.45L223.34-8.45 223.34-21.85 219.68-21.85 219.68-25.39 223.34-25.39ZM259.89-4.71L261.11-1.42Q258.4-0.34 256.02 0.12 253.64 0.59 251.76 0.59L251.76 0.59Q248.88 0.59 246.73-0.33 244.58-1.25 243.15-2.91 241.72-4.57 241-6.87 240.28-9.18 240.28-11.96L240.28-11.96Q240.28-13.67 240.53-15.38 240.77-17.09 241.31-18.64 241.85-20.19 242.71-21.53 243.58-22.88 244.82-23.85 246.07-24.83 247.73-25.39 249.39-25.95 251.51-25.95L251.51-25.95Q256.96-25.95 259.72-22.55 262.48-19.14 262.48-12.79L262.48-12.79 262.48-11.45 244.6-11.45Q244.6-9.4 245.04-7.82 245.48-6.25 246.4-5.16 247.31-4.08 248.72-3.52 250.12-2.95 252.05-2.95L252.05-2.95Q253.12-2.95 254.19-3.11 255.25-3.27 256.25-3.53 257.25-3.78 258.17-4.1 259.08-4.42 259.89-4.71L259.89-4.71ZM244.73-14.82L258.25-14.82Q258.06-18.77 256.36-20.59 254.66-22.41 251.51-22.41L251.51-22.41Q248.36-22.41 246.72-20.59 245.07-18.77 244.73-14.82L244.73-14.82ZM273.36-19.51L273.58-19.51Q274.34-21.02 275.2-22.24 276.07-23.46 277.12-24.32L277.12-24.32Q278.07-25.15 279.22-25.55 280.37-25.95 281.83-25.95L281.83-25.95Q282.32-25.95 282.97-25.9 283.62-25.85 284.2-25.73L284.2-25.73Q284.1-24.51 283.97-23.44 283.83-22.36 283.62-21.26L283.62-21.26Q282.39-21.48 281.38-21.58 280.37-21.68 279.46-21.53L279.46-21.53Q278.39-21.34 277.6-20.81 276.8-20.29 276.13-19.42 275.46-18.55 274.83-17.35 274.19-16.14 273.43-14.58L273.43-14.58 273.43 0 269.24 0 269.24-15.65Q269.24-17.19 269.2-18.36 269.16-19.53 269.05-20.59 268.94-21.66 268.72-22.69 268.5-23.73 268.14-25L268.14-25Q269.16-25.27 270.15-25.49 271.14-25.71 272.16-25.9L272.16-25.9Q272.51-24.93 272.71-24.17 272.92-23.41 273.04-22.69 273.17-21.97 273.23-21.23 273.29-20.48 273.36-19.51L273.36-19.51Z" opacity="1" transform="matrix(1,0,0,1,0,0)" fill="#ffffff" class="wordmark-text-0" data-fill-palette-color="primary" id="text-0"></path></svg></g></svg></g></svg></g></svg></g></svg></g></svg></g></svg></g><g mask="url(#aba7dc29-69b1-42a2-be09-220f79b2d57e)"><g transform="matrix(3.1275908398122283, 0, 0, 3.1275908398122283, 142.76972024152354, 0.9999999999999858)"><svg xmlns:dc="http://purl.org/dc/elements/1.1/" xmlns:cc="http://creativecommons.org/ns#" xmlns:rdf="http://www.w3.org/1999/02/22-rdf-syntax-ns#" xmlns:svg="http://www.w3.org/2000/svg" xmlns="http://www.w3.org/2000/svg" xmlns:sodipodi="http://sodipodi.sourceforge.net/DTD/sodipodi-0.dtd" xmlns:inkscape="http://www.inkscape.org/namespaces/inkscape" viewBox="17.467 0.817 35.16462515395901 78.39900183833545" version="1.1" x="0" y="0" height="78.39900183833545" width="35.16462515395901" class="icon-none" data-fill-palette-color="accent" id="none"><path d="M38.93 0.817L30.948 17.663C28.728 17.801 27.186 18.275 27.02 19.151V19.236C26.926 20.592 30.21 21.941 34.46 22.285 38.823 22.638 42.573 21.808 42.832 20.428 42.977 19.663 41.982 19.032 40.336 18.56zM37.795 5.857L38.072 6.667 38.908 6.856 38.22 7.382 38.296 8.24 37.595 7.722 36.803 8.082 37.055 7.251 36.493 6.592 37.351 6.603zM37.454 9.745L37.598 10.802 38.542 11.262 37.602 11.722 37.443 12.764 36.705 11.998 35.658 12.182 36.164 11.25 35.686 10.314 36.713 10.5zM33.994 14.46L34.678 15.26 35.727 15.182 35.148 16.068 35.568 17.038 34.542 16.768 33.746 17.47 33.688 16.414 32.786 15.858 33.766 15.476zM38.44 13.448L38.58 14.484 39.526 14.965 38.567 15.428 38.403 16.451 37.69 15.701 36.638 15.863 37.144 14.931 36.666 13.997 37.694 14.18z" fill="#ffffff" fill-opacity="1" stroke="none" data-fill-palette-color="accent"></path><path d="M31.248 18.434C30.144 19.431 29.438 20.856 29.438 22.458A5.4 5.4 0 0 0 29.88 24.611C29.903 24.052 29.394 23.063 29.94 22.941 30.811 22.747 30.292 25.147 31.168 25.315 31.74 25.425 31.503 23.995 32.496 24.17 33.423 24.33 32.79 25.776 33.42 25.819 34.02 25.858 33.544 24.353 34.487 24.368 35.523 24.388 35.247 25.88 35.937 25.86 36.552 25.84 36.074 24.57 37.122 24.45 38.056 24.343 37.695 25.66 38.23 25.637 38.98 25.607 38.896 23.77 39.618 23.867 40 23.96 39.922 24.407 39.778 24.893A5.4 5.4 0 0 0 40.363 22.458 5 5 0 0 0 40.282 21.674zM29.055 28.655A1.44 1.44 0 0 0 27.607 30.104V52.658A1.44 1.44 0 0 0 29.055 54.106H40.705A1.44 1.44 0 0 0 42.152 52.658V30.104A1.44 1.44 0 0 0 40.704 28.655H39.678C39.57 28.777 39.42 28.732 39.256 28.655H38.632C38.298 29.223 38.916 30.548 38.512 31.03 38.132 31.48 37.393 30.08 37.102 30.667 36.625 31.631 38.413 32.893 38.069 33.987 37.915 34.475 37.189 34.029 37.063 34.369 36.53 35.804 39.943 36.996 39.276 38.373 38.94 39.067 37.326 38.056 37.002 38.755 36.318 40.232 40.338 41.567 39.497 42.96 39.254 43.363 38.535 42.73 38.09 42.88 37.607 43.04 37.397 44.046 36.922 43.866 36.184 43.586 37.352 41.679 36.58 41.512 36.053 41.397 36.254 42.896 35.715 42.88 34.373 42.84 34.952 39.942 33.743 39.359 33.315 39.152 32.71 39.892 32.335 39.6 31.093 38.635 32.523 36.342 31.912 34.892 31.72 34.434 31.08 34.361 30.946 33.766 30.76 32.928 31.577 32.015 31.37 31.19 31.179 30.442 30.119 30.702 30.06 29.903 30.02 29.313 30.811 29.109 30.926 28.655z" fill="#ffffff" fill-opacity="1" stroke="none" data-fill-palette-color="accent"></path><path d="M24.67 29.017A1.08 1.08 0 0 0 23.582 30.104V49.74A1.1 1.1 0 0 0 24.669 50.847H26.118C26.722 50.847 27.204 50.345 27.204 49.74V30.104A1.08 1.08 0 0 0 26.118 29.017z" fill="#ffffff" fill-opacity="1" stroke="none" data-fill-palette-color="accent"></path><path d="M40.039 29.474A1.08 1.08 0 0 0 39.429 30.884L46.668 49.138C46.89 49.7 47.523 49.99 48.085 49.767L49.45 49.225C50.012 49.003 50.275 48.358 50.052 47.796L42.815 29.542A1.08 1.08 0 0 0 41.405 28.932z" fill="#ffffff" fill-opacity="1" stroke="none" data-fill-palette-color="accent"></path><path d="M36.72 53.024H40.358A1.09 1.09 0 0 1 41.449 54.116V78.126C41.449 78.73 40.962 79.216 40.358 79.216H36.72A1.09 1.09 0 0 1 35.628 78.127V54.116C35.628 53.51 36.115 53.024 36.72 53.024" fill="#ffffff" fill-opacity="1" stroke="none" data-fill-palette-color="accent"></path><path d="M29.444 53.024H33.082A1.09 1.09 0 0 1 34.173 54.116V78.126C34.173 78.73 33.686 79.216 33.082 79.216H29.444A1.09 1.09 0 0 1 28.353 78.127V54.116C28.353 53.51 28.839 53.024 29.444 53.024" fill="#ffffff" fill-opacity="1" stroke="none" data-fill-palette-color="accent"></path><path d="M61.438 19.875C59.684 19.845 58.249 21.278 58.218 23.031V23.125A3.14 3.14 0 0 0 59.439 25.563L55.75 98.125 57.125 98.438 62.469 26.03A3.13 3.13 0 0 0 64.53 23.125C64.561 21.371 63.191 19.905 61.437 19.875M61.375 21.281C62.288 21.281 63.031 22.025 63.031 22.938 63.031 23.85 62.288 24.594 61.375 24.594A1.66 1.66 0 0 1 59.719 22.937C59.719 22.026 60.462 21.282 61.375 21.282" transform="scale(0.8,0.8)" fill="#ffffff" stroke="none" data-fill-palette-color="accent"></path><path d="M26.5 27.971C25.448 27.884 24.63 27.984 23.985 28.213 22.694 28.67 22.174 29.687 22.094 30.607 21.299 37.843 21.644 46.993 21.45 55.334 21.256 63.674 20.49 71.189 17.627 75.07L17.467 75.292 17.666 75.493C18.11 75.936 18.617 76.115 19.118 76.117 19.616 76.12 20.098 75.972 20.564 75.815 21.496 75.503 22.337 75.173 23.1 75.554 23.214 75.61 23.386 75.814 23.563 76.037 23.739 76.26 23.912 76.513 24.206 76.66 24.441 76.778 24.681 76.79 25.072 76.821 25.462 76.854 25.972 76.872 26.54 76.881 27.678 76.902 29.11 76.877 30.544 76.842 33.414 76.773 36.333 76.642 36.821 76.642V75.995C36.231 75.996 33.384 76.13 30.524 76.198 29.094 76.232 27.66 76.256 26.54 76.238 25.98 76.228 25.498 76.208 25.132 76.178S24.49 76.078 24.488 76.077C24.44 76.053 24.266 75.864 24.086 75.634S23.694 75.126 23.38 74.97C22.327 74.443 21.267 74.91 20.364 75.212 19.912 75.363 19.482 75.475 19.116 75.473 18.826 75.473 18.572 75.325 18.311 75.131 21.207 70.925 21.903 63.541 22.094 55.354 22.289 46.984 21.95 37.824 22.738 30.667 22.802 29.926 23.137 29.195 24.206 28.817 25.276 28.436 27.142 28.441 30.202 29.44L30.403 28.836C28.838 28.326 27.553 28.058 26.5 27.971" fill="#ffffff" fill-opacity="1" stroke="none" marker="none" visibility="visible" display="inline" overflow="visible" text-indent="0" text-transform="none" direction="ltr" block-progression="tb" baseline-shift="baseline" color="#ffffff" enable-background="accumulate" data-fill-palette-color="accent"></path><path d="M41.73 27.448C41.136 27.47 40.466 27.64 39.72 27.971L39.98 28.555C41.363 27.942 42.302 27.972 42.998 28.353S44.188 29.516 44.568 30.526C45.326 32.546 45.531 35.371 46.136 37.186 46.46 38.156 47.245 39.323 47.646 40.123 51.893 48.62 53.283 57.713 50.664 68.19 50.392 69.277 50.313 71.213 50.02 73.04 49.873 73.952 49.67 74.844 49.396 75.534S48.776 76.699 48.37 76.902C48.311 76.932 48.3 76.934 48.23 76.902 48.157 76.869 48.051 76.778 47.926 76.64 47.678 76.364 47.387 75.905 47.062 75.453S46.375 74.543 45.915 74.246A1.66 1.66 0 0 0 44.245 74.166C43.822 74.377 43.666 74.826 43.602 75.252S43.556 76.132 43.542 76.52C43.526 76.908 43.451 77.219 43.4 77.284 43.374 77.317 43.387 77.303 43.32 77.304A1 1 0 0 1 42.877 77.184C42.333 76.91 42.071 76.71 41.368 76.359L41.087 76.922C41.75 77.254 42.006 77.461 42.576 77.747H42.596C42.862 77.88 43.093 77.952 43.32 77.948S43.774 77.848 43.903 77.687C44.162 77.364 44.17 76.955 44.185 76.54S44.193 75.676 44.245 75.333 44.381 74.802 44.527 74.729C44.945 74.52 45.226 74.579 45.553 74.789 45.881 75 46.23 75.404 46.54 75.836S47.133 76.718 47.444 77.063C47.6 77.235 47.764 77.393 47.968 77.485A0.8 0.8 0 0 0 48.652 77.485C49.278 77.172 49.696 76.52 50 75.755 50.303 74.99 50.493 74.097 50.643 73.16 50.944 71.286 51.053 69.286 51.287 68.35 53.941 57.735 52.534 48.431 48.23 39.821 47.794 38.953 47.032 37.8 46.76 36.986 46.207 35.325 45.985 32.469 45.171 30.305 44.764 29.223 44.201 28.283 43.3 27.79 42.85 27.544 42.327 27.426 41.73 27.448" fill="#ffffff" fill-opacity="1" stroke="none" marker="none" visibility="visible" display="inline" overflow="visible" text-indent="0" text-transform="none" direction="ltr" block-progression="tb" baseline-shift="baseline" color="#ffffff" enable-background="accumulate" data-fill-palette-color="accent"></path><path d="M30.025 22.768A0.72 0.72 0 0 0 29.522 23.246C29.472 23.446 29.517 23.615 29.547 23.799 29.607 24.17 29.705 24.58 29.697 24.755 29.672 25.403 29.4 26.176 29.623 26.993 29.75 27.458 30.092 27.734 30.352 28S30.753 28.47 30.754 28.68C30.754 28.72 30.761 28.76 30.704 28.828S30.543 28.981 30.427 29.081 30.185 29.299 30.075 29.458A0.94 0.94 0 0 0 29.899 30.06 0.98 0.98 0 0 0 30.201 30.715C30.363 30.861 30.526 30.951 30.679 31.017S30.972 31.132 31.056 31.193A0.34 0.34 0 0 1 31.206 31.42C31.28 31.706 31.165 32.067 31.007 32.501 30.847 32.935 30.658 33.443 30.779 33.985 30.87 34.387 31.143 34.628 31.358 34.789S31.71 35.05 31.76 35.167C32.007 35.753 31.838 36.64 31.71 37.53 31.646 37.976 31.602 38.41 31.66 38.839 31.716 39.267 31.904 39.698 32.287 39.995 32.466 40.134 32.696 40.156 32.867 40.121S33.166 40.006 33.294 39.945 33.54 39.842 33.621 39.82 33.733 39.787 33.747 39.794C33.947 39.891 34.103 40.108 34.225 40.423 34.346 40.738 34.413 41.126 34.5 41.53 34.59 41.933 34.694 42.342 34.88 42.686 35.063 43.031 35.408 43.326 35.859 43.34A0.57 0.57 0 0 0 36.237 43.215 0.8 0.8 0 0 0 36.437 42.938C36.53 42.75 36.572 42.562 36.615 42.385 36.632 42.307 36.646 42.273 36.664 42.209A4 4 0 0 1 36.59 42.737C36.537 43 36.48 43.263 36.489 43.54A0.96 0.96 0 0 0 36.588 43.97 0.73 0.73 0 0 0 36.966 44.296 0.65 0.65 0 0 0 37.57 44.196C37.72 44.081 37.83 43.948 37.922 43.817 38.102 43.556 38.285 43.337 38.349 43.315 38.394 43.3 38.646 43.373 38.928 43.466 39.068 43.513 39.2 43.566 39.38 43.566S39.792 43.458 39.908 43.266C40.048 43.032 40.1 42.777 40.06 42.535A1.5 1.5 0 0 0 39.783 41.883C39.496 41.487 39.06 41.12 38.65 40.775S37.853 40.102 37.62 39.795C37.386 39.486 37.33 39.282 37.444 39.04 37.469 38.985 37.476 38.974 37.62 38.964 37.763 38.954 37.98 39 38.223 39.04 38.467 39.08 38.715 39.107 38.978 39.09S39.566 38.955 39.708 38.662C39.928 38.204 39.807 37.71 39.555 37.33 39.305 36.95 38.928 36.626 38.576 36.298 38.223 35.971 37.899 35.66 37.696 35.368 37.511 35.106 37.465 34.9 37.518 34.688 37.566 34.689 37.612 34.686 37.695 34.689 37.815 34.695 37.956 34.722 38.123 34.665A0.68 0.68 0 0 0 38.525 34.236C38.641 33.87 38.577 33.481 38.45 33.155S38.144 32.535 37.972 32.249 37.624 31.696 37.544 31.47C37.484 31.299 37.518 31.184 37.544 31.068 37.6 31.105 37.641 31.127 37.72 31.193 37.853 31.304 37.982 31.43 38.173 31.52A0.66 0.66 0 0 0 38.525 31.595 0.6 0.6 0 0 0 38.902 31.395C39.08 31.181 39.125 30.907 39.13 30.664 39.132 30.422 39.085 30.199 39.053 29.961A5 5 0 0 1 39.003 29.307C39.003 29.15 39.05 29.064 39.08 29.005 39.118 29.02 39.137 29.048 39.204 29.081 39.308 29.13 39.43 29.187 39.607 29.206S40.052 29.12 40.16 28.93C40.403 28.5 40.327 28.019 40.235 27.572S40.022 26.68 40.01 26.339A5 5 0 0 1 40.009 26.037C40.015 25.811 40.174 25.341 40.286 24.906 40.34 24.688 40.399 24.483 40.36 24.252A0.72 0.72 0 0 0 39.858 23.699H39.808A0.65 0.65 0 0 0 39.38 23.774 1 1 0 0 0 39.08 24.076C38.938 24.286 38.859 24.504 38.777 24.73 38.694 24.955 38.607 25.179 38.525 25.308 38.463 25.408 38.438 25.422 38.4 25.434A3 3 0 0 1 38.274 25.082C38.224 24.91 38.168 24.702 37.997 24.529A0.92 0.92 0 0 0 37.243 24.277 1.16 1.16 0 0 0 36.488 24.679 1.44 1.44 0 0 0 36.211 25.258C36.161 25.44 36.117 25.596 36.086 25.66S36.104 25.684 36.06 25.685C36.004 25.687 36.038 25.695 35.985 25.61A3 3 0 0 1 35.784 25.157 1.8 1.8 0 0 0 35.432 24.554 1.06 1.06 0 0 0 34.652 24.202C34.332 24.196 34.046 24.347 33.898 24.554S33.688 24.987 33.646 25.182C33.62 25.313 33.593 25.396 33.571 25.484 33.556 25.39 33.534 25.304 33.52 25.157 33.5 24.953 33.484 24.707 33.37 24.478A0.94 0.94 0 0 0 32.69 24C32.37 23.944 32.08 24.011 31.887 24.176 31.693 24.342 31.608 24.554 31.534 24.73 31.464 24.896 31.396 25.04 31.358 25.107 31.296 25.086 31.245 25.057 31.182 24.88A5 5 0 0 1 31.006 24.076C30.96 23.776 30.92 23.488 30.804 23.22 30.746 23.087 30.672 22.94 30.528 22.843 30.398 22.757 30.236 22.745 30.075 22.768 30.058 22.771 30.042 22.764 30.025 22.768M30.15 23.397C30.194 23.387 30.178 23.398 30.176 23.397 30.174 23.395 30.196 23.405 30.226 23.472 30.284 23.606 30.332 23.88 30.376 24.176 30.422 24.474 30.473 24.813 30.579 25.106 30.684 25.402 30.893 25.692 31.257 25.762A0.6 0.6 0 0 0 31.659 25.71C31.774 25.646 31.832 25.544 31.886 25.459 31.994 25.289 32.05 25.128 32.112 24.981A0.85 0.85 0 0 1 32.313 24.68C32.373 24.63 32.413 24.6 32.59 24.63 32.735 24.655 32.746 24.69 32.791 24.78S32.875 25.023 32.891 25.208C32.91 25.392 32.906 25.603 32.968 25.81A0.7 0.7 0 0 0 33.143 26.113 0.68 0.68 0 0 0 33.546 26.289 0.61 0.61 0 0 0 34.149 25.887C34.23 25.692 34.264 25.48 34.3 25.308S34.377 24.998 34.426 24.931C34.475 24.863 34.476 24.853 34.627 24.855 34.81 24.858 34.9 24.893 34.98 24.981S35.113 25.232 35.18 25.41C35.248 25.585 35.314 25.772 35.432 25.962S35.798 26.348 36.086 26.339C36.35 26.332 36.576 26.12 36.664 25.937 36.753 25.754 36.773 25.587 36.815 25.434A1 1 0 0 1 36.991 25.082C37.056 25.004 37.122 24.953 37.318 24.93 37.48 24.912 37.505 24.94 37.544 24.98S37.63 25.12 37.67 25.258 37.74 25.563 37.821 25.736C37.861 25.822 37.923 25.91 38.022 25.987S38.268 26.118 38.4 26.113C38.718 26.1 38.94 25.88 39.08 25.66 39.217 25.44 39.298 25.18 39.38 24.956 39.463 24.732 39.56 24.536 39.632 24.428A0.6 0.6 0 0 1 39.707 24.328C39.72 24.32 39.708 24.323 39.732 24.327 39.73 24.324 39.728 24.322 39.732 24.351 39.742 24.412 39.704 24.57 39.657 24.755 39.562 25.125 39.367 25.588 39.355 26.037 39.353 26.137 39.351 26.25 39.355 26.364 39.373 26.831 39.523 27.29 39.607 27.697 39.684 28.071 39.658 28.341 39.582 28.527 39.547 28.514 39.532 28.501 39.48 28.477A1.2 1.2 0 0 0 39.104 28.351C38.934 28.324 38.678 28.396 38.55 28.578 38.393 28.8 38.35 29.06 38.35 29.307 38.35 29.553 38.392 29.799 38.424 30.037 38.456 30.272 38.477 30.492 38.475 30.664A0.5 0.5 0 0 1 38.425 30.916 2.5 2.5 0 0 1 38.123 30.69 1.6 1.6 0 0 0 37.645 30.388C37.542 30.35 37.41 30.31 37.268 30.363A0.6 0.6 0 0 0 36.966 30.665C36.798 31.003 36.829 31.354 36.941 31.671 37.052 31.988 37.245 32.288 37.419 32.576 37.592 32.864 37.749 33.156 37.846 33.406 37.944 33.656 37.978 33.855 37.922 34.035A0.6 0.6 0 0 1 37.72 34.06C37.62 34.056 37.491 34.038 37.343 34.06S36.966 34.184 36.891 34.387C36.713 34.865 36.9 35.34 37.167 35.72 37.434 36.101 37.797 36.45 38.148 36.776 38.5 37.102 38.818 37.428 39.003 37.706 39.188 37.987 39.241 38.157 39.13 38.387 39.102 38.44 39.099 38.452 38.953 38.46 38.807 38.471 38.568 38.426 38.324 38.386A3.2 3.2 0 0 0 37.57 38.336C37.307 38.354 36.977 38.468 36.84 38.763 36.61 39.258 36.814 39.773 37.117 40.171 37.42 40.571 37.84 40.934 38.249 41.278S39.043 41.968 39.255 42.258A0.9 0.9 0 0 1 39.43 42.637 0.4 0.4 0 0 1 39.38 42.913C39.342 42.913 39.253 42.879 39.128 42.837 38.879 42.755 38.524 42.577 38.123 42.712 37.705 42.852 37.556 43.232 37.393 43.466A1.1 1.1 0 0 1 37.194 43.692C37.17 43.684 37.175 43.71 37.166 43.692A0.4 0.4 0 0 1 37.142 43.542C37.138 43.38 37.191 43.127 37.242 42.861A3.5 3.5 0 0 0 37.319 42.032C37.311 41.897 37.304 41.767 37.218 41.63A0.7 0.7 0 0 0 36.79 41.353 0.55 0.55 0 0 0 36.388 41.403 0.7 0.7 0 0 0 36.16 41.68C36.065 41.864 36.028 42.055 35.985 42.234A2.6 2.6 0 0 1 35.86 42.66C35.851 42.678 35.865 42.677 35.86 42.686 35.64 42.68 35.554 42.611 35.432 42.385 35.31 42.158 35.216 41.8 35.13 41.404S34.98 40.564 34.828 40.17C34.677 39.78 34.428 39.411 34.023 39.216 33.823 39.119 33.61 39.145 33.445 39.19S33.141 39.308 33.018 39.367A1.3 1.3 0 0 1 32.74 39.467C32.679 39.48 32.675 39.5 32.665 39.492 32.427 39.307 32.331 39.08 32.288 38.763 32.246 38.447 32.277 38.034 32.338 37.606 32.462 36.75 32.728 35.78 32.364 34.916 32.22 34.573 31.924 34.403 31.734 34.26 31.546 34.12 31.452 34.026 31.409 33.834 31.342 33.539 31.45 33.163 31.609 32.727 31.77 32.292 31.972 31.782 31.835 31.243A1.04 1.04 0 0 0 31.433 30.665C31.263 30.54 31.1 30.475 30.955 30.413A1.4 1.4 0 0 1 30.628 30.237C30.568 30.184 30.537 30.164 30.528 30.037 30.522 29.954 30.553 29.906 30.603 29.834S30.721 29.677 30.83 29.584C30.938 29.49 31.068 29.369 31.182 29.23S31.409 28.905 31.408 28.678C31.407 28.176 31.078 27.826 30.804 27.546S30.286 27.038 30.226 26.817C30.072 26.254 30.294 25.561 30.326 24.78 30.343 24.396 30.226 23.998 30.177 23.699A1.2 1.2 0 0 1 30.15 23.397" fill="#ffffff" fill-opacity="1" stroke="none" marker="none" visibility="visible" display="inline" overflow="visible" text-indent="0" text-transform="none" direction="ltr" block-progression="tb" baseline-shift="baseline" color="#ffffff" enable-background="accumulate" data-fill-palette-color="accent"></path></svg></g></g></svg></g><defs></defs></svg><rect width="395.52" height="247.2" fill="none" stroke="none" visibility="hidden"></rect></g></svg></g></svg>